# xmcd CD database file
#
# Track frame offsets:
#	150
#	15061
#	29304
#	41634
#	54647
#	72010
#	89495
#	102641
#	121201
#	134298
#	149195
#	164584
#	177996
#	192989
#	212145
#	237136
#	253895
#	269860
#	281881
#	295122
#	309229
#	324099
#	343030
#
# Disc length: 4748 seconds
#
# Revision: 0
# Processed by: cddbd v1.5.1PL2 Copyright (c) Steve Scherf et al.
# Submitted via: CDex 1.51
#
DISCID=66128a17
DTITLE=Buddy Rich - Quiet Riot
DYEAR=1900
DGENRE=Jazz
TTITLE0=Dateless Brown
TTITLE1=Desperate Desmond
TTITLE2=Rags To Riches
TTITLE3=Quiet Riot
TTITLE4=Poontang
TTITLE5=Just You, Just Me
TTITLE6=Great Moments
TTITLE7=Feather Merchant
TTITLE8=A Little Handicap
TTITLE9=Cool Breeze
TTITLE10=Daily Double
TTITLE11=Oop Bop Sh-Bam
TTITLE12=That's Rich
TTITLE13=Budella (Blue Skies)
TTITLE14=Nellie's Nightmare
TTITLE15=What Is This Things Called Love?
TTITLE16=The Goof And I
TTITLE17=A Man Could Be A Wonderful Thing
TTITLE18=Little White Lies
TTITLE19=Queer Street
TTITLE20=I May Be Wrong
TTITLE21=Robbins Nest
TTITLE22=Good Bait
EXTD=
EXTT0=
EXTT1=
EXTT2=
EXTT3=
EXTT4=
EXTT5=
EXTT6=
EXTT7=
EXTT8=
EXTT9=
EXTT10=
EXTT11=
EXTT12=
EXTT13=
EXTT14=
EXTT15=
EXTT16=
EXTT17=
EXTT18=
EXTT19=
EXTT20=
EXTT21=
EXTT22=
PLAYORDER=
